name processed_emg_signals						
nRows=129						
nColumns=7						
 						
endheader						
time	RGLTMED	RRF	RADDLONG	RST	RTA	RGM
1.927	0.058925077	0.108112944	0.107590995	0.005051736	0.535865322	0.004266735
1.928	0.058716311	0.108964257	0.106564268	0.004742765	0.537029511	0.005014476
1.929	0.058496545	0.109784833	0.105531923	0.004464094	0.538063749	0.005771816
1.93	0.058266078	0.11057385	0.104494645	0.004215281	0.538967428	0.006537954
1.931	0.058025217	0.111330506	0.103453113	0.003995879	0.539740017	0.007312118
1.932	0.057774281	0.112054021	0.102408003	0.003805445	0.540381056	0.008093572
1.933	0.057513602	0.112743637	0.101359985	0.003643536	0.540890161	0.008881611
1.934	0.057243517	0.113398623	0.10030972	0.003509713	0.541267021	0.009675562
1.935	0.056964374	0.114018269	0.099257863	0.003403539	0.541511398	0.010474785
1.936	0.056676531	0.114601896	0.098205063	0.00332458	0.54162313	0.011278673
1.937	0.05638035	0.115148849	0.097151959	0.003272407	0.541602124	0.012086648
1.938	0.056076203	0.115658503	0.096099182	0.003246596	0.541448364	0.012898168
1.939	0.055764468	0.116130262	0.095047353	0.003246727	0.541161904	0.013712719
1.94	0.055445529	0.116563563	0.093997086	0.003272388	0.540742872	0.014529819
1.941	0.055119773	0.116957872	0.092948982	0.00332317	0.540191466	0.015349017
1.942	0.054787595	0.117312689	0.091903636	0.003398674	0.53950796	0.016169893
1.943	0.054449392	0.117627547	0.090861628	0.003498506	0.538692695	0.016992054
1.944	0.054105565	0.117902017	0.089823529	0.00362228	0.537746087	0.01781514
1.945	0.053756518	0.118135702	0.088789901	0.00376962	0.53666862	0.018638817
1.946	0.053402656	0.118328244	0.087761291	0.003940154	0.535460851	0.019462782
1.947	0.053044388	0.118479321	0.086738235	0.004133523	0.534123405	0.020286756
1.948	0.052682123	0.118588651	0.08572126	0.004349374	0.532656977	0.021110491
1.949	0.052316269	0.11865599	0.084710877	0.004587365	0.531062334	0.021933763
1.95	0.051947236	0.118681133	0.083707587	0.004847161	0.529340308	0.022756375
1.951	0.051575433	0.118663919	0.082711877	0.00512844	0.527491803	0.023578156
1.952	0.051201268	0.118604224	0.081724221	0.005430886	0.525517788	0.024398957
1.953	0.050825147	0.118501969	0.080745081	0.005754197	0.523419303	0.025218656
1.954	0.050447474	0.118357115	0.079774905	0.006098077	0.521197454	0.026037153
1.955	0.050068652	0.118169667	0.078814128	0.006462244	0.518853414	0.02685437
1.956	0.049689078	0.117939673	0.077863171	0.006846423	0.516388422	0.027670252
1.957	0.049309147	0.117667223	0.076922442	0.007250351	0.513803785	0.028484764
1.958	0.048929252	0.117352452	0.075992333	0.007673776	0.511100874	0.029297893
1.959	0.048549778	0.116995538	0.075073225	0.008116455	0.508281128	0.030109645
1.96	0.048171109	0.116596703	0.074165483	0.008578156	0.505346049	0.030920045
1.961	0.04779362	0.116156214	0.073269458	0.009058657	0.502297204	0.031729137
1.962	0.047417684	0.115674379	0.072385486	0.009557747	0.499136227	0.032536981
1.963	0.047043666	0.115151553	0.07151389	0.010075224	0.495864814	0.033343658
1.964	0.046671925	0.114588131	0.070654976	0.010610898	0.492484724	0.034149261
1.965	0.046302813	0.113984554	0.069809038	0.011164586	0.488997782	0.034953901
1.966	0.045936675	0.113341303	0.068976354	0.011736119	0.485405873	0.035757704
1.967	0.045573851	0.112658904	0.068157186	0.012325334	0.481710948	0.03656081
1.968	0.045214669	0.111937922	0.067351783	0.012932078	0.477915018	0.037363374
1.969	0.044859453	0.111178966	0.066560379	0.013556211	0.474020157	0.038165564
1.97	0.044508516	0.110382681	0.065783191	0.014197597	0.470028501	0.038967559
1.971	0.044162164	0.109549757	0.065020423	0.014856114	0.465942245	0.039769553
1.972	0.043820694	0.108680918	0.064272263	0.015531644	0.461763648	0.040571749
1.973	0.043484393	0.107776927	0.063538885	0.01622408	0.457495026	0.041374364
1.974	0.04315354	0.106838585	0.062820446	0.016933325	0.453138759	0.042177625
1.975	0.042828403	0.105866728	0.062117091	0.017659287	0.448697281	0.042981767
1.976	0.042509241	0.104862224	0.061428948	0.018401882	0.44417309	0.043787039
1.977	0.042196303	0.103825978	0.06075613	0.019161037	0.439568737	0.044593697
1.978	0.041889828	0.102758924	0.060098737	0.019936682	0.434886833	0.045402007
1.979	0.041590045	0.101662027	0.059456854	0.020728757	0.430130044	0.046212244
1.98	0.041297172	0.100536281	0.05883055	0.021537208	0.425301093	0.047024694
1.981	0.041011415	0.099382709	0.05821988	0.022361987	0.420402756	0.047839647
1.982	0.040732972	0.098202359	0.057624886	0.023203052	0.415437862	0.048657406
1.983	0.040462027	0.096996302	0.057045595	0.024060369	0.410409293	0.04947828
1.984	0.040198757	0.095765633	0.056482021	0.024933909	0.405319981	0.050302587
1.985	0.039943324	0.09451147	0.055934162	0.025823648	0.400172906	0.051130654
1.986	0.03969588	0.093234947	0.055402006	0.026729567	0.3949711	0.051962813
1.987	0.039456567	0.091937219	0.054885523	0.027651653	0.389717636	0.052799408
1.988	0.039225515	0.090619454	0.054384675	0.028589898	0.384415636	0.053640788
1.989	0.039002842	0.089282836	0.053899407	0.029544299	0.379068263	0.054487314
1.99	0.038788656	0.087928561	0.053429653	0.030514857	0.373678718	0.055339352
1.991	0.038583052	0.086557837	0.052975336	0.031501577	0.368250246	0.056197278
1.992	0.038386115	0.085171878	0.052536364	0.032504469	0.362786125	0.057061476
1.993	0.038197918	0.083771909	0.052112636	0.033523546	0.357289668	0.057932341
1.994	0.038018524	0.082359156	0.051704038	0.034558826	0.351764221	0.058810275
1.995	0.037847984	0.080934853	0.051310443	0.035610331	0.346213158	0.059695691
1.996	0.037686337	0.079500231	0.050931718	0.036678084	0.34063988	0.06058901
1.997	0.037533613	0.078056526	0.050567713	0.037762115	0.335047813	0.061490666
1.998	0.037389828	0.076604969	0.050218274	0.038862454	0.329440405	0.0624011
1.999	0.037254991	0.075146788	0.049883232	0.039979138	0.323821121	0.063320768
2	0.037129097	0.073683207	0.04956241	0.041112203	0.318193441	0.064250133
2.001	0.037012133	0.072215443	0.049255623	0.042261691	0.312560861	0.065189674
2.002	0.036904073	0.070744704	0.048962675	0.043427646	0.306926881	0.066139879
2.003	0.036804882	0.069272189	0.048683361	0.044610116	0.301295011	0.067101249
2.004	0.036714515	0.067799084	0.048417469	0.04580915	0.295668761	0.0680743
2.005	0.036632917	0.066326564	0.048164779	0.047024801	0.290051642	0.06905956
2.006	0.036560022	0.064855788	0.047925061	0.048257126	0.284447158	0.07005757
2.007	0.036495755	0.0633879	0.04769808	0.049506183	0.278858807	0.071068888
2.008	0.036440032	0.061924026	0.047483592	0.050772033	0.273290074	0.072094086
2.009	0.036392759	0.060465275	0.047281348	0.052054742	0.267744429	0.07313375
2.01	0.036353833	0.059012735	0.047091089	0.053354376	0.262225321	0.074188483
2.011	0.036323143	0.057567473	0.046912555	0.054671005	0.256736176	0.075258904
2.012	0.036300566	0.056130534	0.046745476	0.056004703	0.251280395	0.076345648
2.013	0.036285975	0.05470294	0.046589578	0.057355545	0.245861345	0.077449369
2.014	0.036279232	0.05328569	0.046444581	0.058723611	0.240482358	0.078570737
2.015	0.03628019	0.051879755	0.046310203	0.06010898	0.235146729	0.079710438
2.016	0.036288696	0.050486081	0.046186154	0.061511739	0.229857709	0.080869178
2.017	0.036304589	0.049105589	0.046072141	0.062931973	0.224618501	0.082047681
2.018	0.036327701	0.047739169	0.045967869	0.064369774	0.219432259	0.083246688
2.019	0.036357854	0.046387685	0.045873037	0.065825233	0.214302081	0.08446696
2.02	0.036394865	0.045051971	0.045787343	0.067298446	0.209231007	0.085709274
2.021	0.036438546	0.04373283	0.045710481	0.068789512	0.204222014	0.086974428
2.022	0.036488699	0.042431037	0.045642144	0.07029853	0.199278015	0.088263237
2.023	0.036545121	0.041147334	0.045582021	0.071825604	0.194401852	0.089576532
2.024	0.036607604	0.039882433	0.045529802	0.07337084	0.189596292	0.090915166
2.025	0.036675933	0.038637013	0.045485174	0.074934346	0.184864029	0.092280005
2.026	0.036749886	0.037411724	0.045447823	0.07651623	0.180207674	0.093671934
2.027	0.036829239	0.036207179	0.045417435	0.078116606	0.175629757	0.095091854
2.028	0.036913761	0.035023963	0.045393697	0.079735586	0.171132718	0.096540682
2.029	0.037003214	0.033862627	0.045376295	0.081373285	0.166718911	0.098019348
2.03	0.037097359	0.032723689	0.045364915	0.083029819	0.162390596	0.099528798
2.031	0.037195951	0.031607633	0.045359245	0.084705306	0.158149937	0.101069991
2.032	0.03729874	0.030514914	0.045358975	0.086399862	0.153999	0.102643896
2.033	0.037405473	0.02944595	0.045363794	0.088113606	0.149939752	0.104251495
2.034	0.037515893	0.028401131	0.045373396	0.089846655	0.145974055	0.105893778
2.035	0.03762974	0.02738081	0.045387475	0.091599126	0.142103668	0.107571744
2.036	0.03774675	0.026385313	0.04540573	0.093371135	0.138330241	0.1092864
2.037	0.037866657	0.02541493	0.045427861	0.095162795	0.134655315	0.111038755
2.038	0.037989191	0.024469921	0.045453571	0.096974221	0.131080321	0.112829826
2.039	0.038114081	0.023550515	0.045482568	0.09880552	0.127606576	0.114660629
2.04	0.038241054	0.022656911	0.045514563	0.100656799	0.124235284	0.116532182
2.041	0.038369832	0.021789276	0.045549273	0.102528162	0.120967535	0.118445501
2.042	0.038500141	0.020947749	0.045586415	0.104419705	0.1178043	0.120401598
2.043	0.038631699	0.020132438	0.045625716	0.106331523	0.114746436	0.122401481
2.044	0.03876423	0.019343423	0.045666904	0.108263702	0.111794678	0.124446149
2.045	0.038897451	0.018580755	0.045709714	0.110216324	0.108949646	0.126536593
2.046	0.039031083	0.017844459	0.045753885	0.112189461	0.10621184	0.128673791
2.047	0.039164845	0.017134531	0.045799164	0.114183179	0.10358164	0.130858707
2.048	0.039298457	0.016450943	0.045845301	0.116197536	0.101059309	0.13309229
2.049	0.039431638	0.015793639	0.045892053	0.11823258	0.098644989	0.135375469
2.05	0.03956411	0.015162539	0.045939185	0.120288346	0.096338706	0.137709152
2.051	0.039695595	0.01455754	0.045986467	0.122364863	0.094140364	0.140094224
2.052	0.039825817	0.013978513	0.046033673	0.124462144	0.092049755	0.142531544
2.053	0.039954502	0.013425309	0.046080589	0.126580191	0.090066549	0.145021943
2.054	0.040081378	0.012897755	0.046127005	0.128718994	0.088190305	0.147566222
2.055	0.040206177	0.012395658	0.046172718	0.130878527	0.086420466	0.150165147
